<svg width="79" height="13" viewBox="0 0 79 13" fill="none" xmlns="http://www.w3.org/2000/svg">
<path d="M2.728 0.768V12H-0.00799996V0.768H2.728ZM12.7908 6.24C13.4414 6.37867 13.9641 6.704 14.3588 7.216C14.7534 7.71733 14.9508 8.29333 14.9508 8.944C14.9508 9.88267 14.6201 10.6293 13.9587 11.184C13.3081 11.728 12.3961 12 11.2228 12H5.99075V0.768H11.0468C12.1881 0.768 13.0787 1.02933 13.7188 1.552C14.3694 2.07467 14.6947 2.784 14.6947 3.68C14.6947 4.34133 14.5187 4.89067 14.1667 5.328C13.8254 5.76533 13.3667 6.06933 12.7908 6.24ZM8.72675 5.312H10.5188C10.9668 5.312 11.3081 5.216 11.5427 5.024C11.7881 4.82133 11.9107 4.528 11.9107 4.144C11.9107 3.76 11.7881 3.46667 11.5427 3.264C11.3081 3.06133 10.9668 2.96 10.5188 2.96H8.72675V5.312ZM10.7428 9.792C11.2014 9.792 11.5534 9.69067 11.7987 9.488C12.0548 9.27467 12.1828 8.97067 12.1828 8.576C12.1828 8.18133 12.0494 7.872 11.7828 7.648C11.5267 7.424 11.1694 7.312 10.7108 7.312H8.72675V9.792H10.7428ZM20.5536 9.888H24.1376V12H17.8176V0.768H20.5536V9.888ZM29.4586 0.768V12H26.7226V0.768H29.4586ZM35.6334 9.76H40.4654V12H32.5294V9.92L37.3294 3.008H32.5294V0.768H40.4654V2.848L35.6334 9.76ZM50.9393 0.768V12H48.2033V0.768H50.9393ZM64.25 12H61.514L56.938 5.072V12H54.202V0.768H56.938L61.514 7.728V0.768H64.25V12ZM67.0492 6.368C67.0492 5.25867 67.2892 4.272 67.7692 3.408C68.2492 2.53333 68.9159 1.856 69.7692 1.376C70.6332 0.885333 71.6092 0.639999 72.6972 0.639999C74.0306 0.639999 75.1719 0.991999 76.1212 1.696C77.0706 2.4 77.7052 3.36 78.0252 4.576H75.0172C74.7932 4.10667 74.4732 3.74933 74.0572 3.504C73.6519 3.25867 73.1879 3.136 72.6652 3.136C71.8226 3.136 71.1399 3.42933 70.6172 4.016C70.0946 4.60267 69.8332 5.38667 69.8332 6.368C69.8332 7.34933 70.0946 8.13333 70.6172 8.72C71.1399 9.30667 71.8226 9.6 72.6652 9.6C73.1879 9.6 73.6519 9.47733 74.0572 9.232C74.4732 8.98667 74.7932 8.62933 75.0172 8.16H78.0252C77.7052 9.376 77.0706 10.336 76.1212 11.04C75.1719 11.7333 74.0306 12.08 72.6972 12.08C71.6092 12.08 70.6332 11.84 69.7692 11.36C68.9159 10.8693 68.2492 10.192 67.7692 9.328C67.2892 8.464 67.0492 7.47733 67.0492 6.368Z" fill="white"/>
</svg>
